<svg width="99" height="30" viewBox="0 0 99 30" fill="none" xmlns="http://www.w3.org/2000/svg">
<path d="M0.463008 28.5V0.499998H11.063L22.583 20.98L24.743 19.58C23.463 17.6067 22.5563 15.8333 22.023 14.26C21.4897 12.66 21.223 10.7933 21.223 8.66V0.499998H28.543V28.5H19.903L6.34301 4.34L4.18301 5.66C6.58301 9.63333 7.78301 13.62 7.78301 17.62V28.5H0.463008ZM32.1368 23.3C32.1368 18.7667 36.3901 16.18 44.8968 15.54V14.82C44.8968 13.1667 43.9368 12.34 42.0168 12.34C40.0168 12.34 38.7901 13.2867 38.3368 15.18L31.8568 14.1C32.0968 12.26 33.1368 10.7533 34.9768 9.58C36.8168 8.38 39.2168 7.78 42.1768 7.78C45.2168 7.78 47.5501 8.46 49.1768 9.82C50.8034 11.18 51.6168 13.14 51.6168 15.7V22.3C51.6168 22.78 51.6834 23.1 51.8168 23.26C51.9501 23.42 52.2568 23.5 52.7368 23.5H54.2968V28.5H51.1368C49.4834 28.5 48.3634 28.1933 47.7768 27.58C47.1901 26.94 46.8701 25.86 46.8168 24.34H44.7368C43.8034 27.5667 41.6834 29.18 38.3768 29.18C36.5368 29.18 35.0301 28.6467 33.8568 27.58C32.7101 26.5133 32.1368 25.0867 32.1368 23.3ZM44.8968 20.38V19.18C42.9234 19.3667 41.4434 19.7267 40.4568 20.26C39.4701 20.7933 38.9768 21.5667 38.9768 22.58C38.9768 23.86 39.7234 24.5 41.2168 24.5C42.2834 24.5 43.1634 24.14 43.8568 23.42C44.5501 22.7 44.8968 21.6867 44.8968 20.38ZM59.6927 28.5L52.2927 8.46H59.6527L61.8127 15.18C62.2927 16.7533 62.6127 18.2333 62.7727 19.62C62.9327 21.0333 63.0127 22.7667 63.0127 24.82H65.3727C65.3727 22.8733 65.4394 21.1267 65.5727 19.58C65.7327 18.06 66.026 16.6067 66.4527 15.22L68.5327 8.46H75.5327L68.4927 28.5H59.6927ZM82.8474 28.5L75.4474 8.46H82.8074L84.9674 15.18C85.4474 16.7533 85.7674 18.2333 85.9274 19.62C86.0874 21.0333 86.1674 22.7667 86.1674 24.82H88.5274C88.5274 22.8733 88.5941 21.1267 88.7274 19.58C88.8874 18.06 89.1807 16.6067 89.6074 15.22L91.6874 8.46H98.6874L91.6474 28.5H82.8474Z" fill="#181818"/>
</svg>
